<svg xmlns="http://www.w3.org/2000/svg" viewBox="0 0 1200 630" font-family="Inter, system-ui, sans-serif">
  <defs>
    <linearGradient id="bg" x1="0" y1="0" x2="1" y2="1">
      <stop offset="0%" stop-color="#0a1628"/>
      <stop offset="100%" stop-color="#1a2840"/>
    </linearGradient>
    <linearGradient id="route" x1="0" y1="0" x2="1" y2="0">
      <stop offset="0%" stop-color="#c9a36b" stop-opacity="0"/>
      <stop offset="50%" stop-color="#c9a36b" stop-opacity="0.5"/>
      <stop offset="100%" stop-color="#c9a36b" stop-opacity="0"/>
    </linearGradient>
  </defs>
  <rect width="1200" height="630" fill="url(#bg)"/>
  <path d="M 100 500 Q 320 380 540 410 T 980 230 T 1180 100" fill="none" stroke="url(#route)" stroke-width="2" stroke-dasharray="6 8"/>
  <circle cx="100" cy="500" r="6" fill="#c9a36b"/>
  <circle cx="540" cy="410" r="6" fill="#c9a36b"/>
  <circle cx="980" cy="230" r="6" fill="#c9a36b"/>
  <circle cx="1180" cy="100" r="8" fill="#ffffff"/>
  <g transform="translate(80, 80)">
    <path d="M 0 60 L 0 0 L 40 40 L 80 0 L 80 60" fill="none" stroke="#ffffff" stroke-width="5" stroke-linecap="round" stroke-linejoin="round"/>
    <circle cx="0" cy="0" r="5" fill="#ffffff"/>
    <circle cx="40" cy="40" r="5" fill="#ffffff"/>
    <circle cx="80" cy="0" r="5" fill="#ffffff"/>
  </g>
  <text x="80" y="290" fill="#ffffff" font-size="60" font-weight="700" letter-spacing="-1.5">Morrison</text>
  <text x="80" y="345" fill="#c9a36b" font-size="22" font-weight="500" letter-spacing="3" text-transform="uppercase">PREMIUM TRANSFER</text>
  <text x="80" y="460" fill="rgba(255,255,255,0.85)" font-size="32" font-weight="400" letter-spacing="-0.5">Private transfers · Brazil &amp; Mercosur</text>
  <text x="80" y="510" fill="rgba(255,255,255,0.55)" font-size="22" font-weight="400">Locked price · NF-e · 24/7</text>
  <text x="80" y="565" fill="#c9a36b" font-size="18" font-weight="600" letter-spacing="2">morrison-transfer.com</text>
</svg>
